{"accessors" : [{"bufferView" : 0, "byteOffset" : 0, "componentType" : 5123, "count" : 20952, "type" : "SCALAR", "max" : [3763], "min" : [0]}, {"bufferView" : 1, "byteOffset" : 0, "componentType" : 5126, "count" : 3764, "type" : "VEC3", "max" : [19.4144515991211, 99.1007766723633, 12.8319444656372], "min" : [-19.3650207519531, 9.95869827270508, -10.8333406448364]}, {"bufferView" : 1, "byteOffset" : 12, "componentType" : 5126, "count" : 3764, "type" : "VEC3", "max" : [0.999871015548706, 0.999974370002747, 0.999818742275238], "min" : [-0.999982416629791, -0.998773157596588, -0.999958992004395]}, {"bufferView" : 1, "byteOffset" : 24, "componentType" : 5126, "count" : 3764, "type" : "VEC2", "max" : [0.50635701417923, -0.00633500004187226], "min" : [0.00781400036066771, -0.543290972709656]}, {"bufferView" : 0, "byteOffset" : 41904, "componentType" : 5123, "count" : 46476, "type" : "SCALAR", "max" : [8912], "min" : [0]}, {"bufferView" : 4, "byteOffset" : 0, "componentType" : 5126, "count" : 8913, "type" : "VEC3", "max" : [48.908519744873, 149.303192138672, 17.6511745452881], "min" : [-48.3667488098145, 89.0380859375, -10.238356590271]}, {"bufferView" : 4, "byteOffset" : 12, "componentType" : 5126, "count" : 8913, "type" : "VEC3", "max" : [0.999881863594055, 0.999748289585114, 0.999982237815857], "min" : [-0.999866247177124, -0.99977707862854, -0.999981760978699]}, {"bufferView" : 4, "byteOffset" : 24, "componentType" : 5126, "count" : 8913, "type" : "VEC2", "max" : [0.974734008312225, -0.00647199992090464], "min" : [0.00481999991461635, -0.993237972259521]}, {"bufferView" : 0, "byteOffset" : 134856, "componentType" : 5123, "count" : 59592, "type" : "SCALAR", "max" : [10682], "min" : [0]}, {"bufferView" : 7, "byteOffset" : 0, "componentType" : 5126, "count" : 10683, "type" : "VEC3", "max" : [83.4467926025391, 173.254486083984, 16.8673343658447], "min" : [-83.4479217529297, 0.583597004413605, -8.41177654266357]}, {"bufferView" : 7, "byteOffset" : 12, "componentType" : 5126, "count" : 10683, "type" : "VEC3", "max" : [0.99967086315155, 1.00000429153442, 0.999990999698639], "min" : [-0.999971568584442, -1.00000429153442, -0.99993884563446]}, {"bufferView" : 7, "byteOffset" : 24, "componentType" : 5126, "count" : 10683, "type" : "VEC2", "max" : [0.998345017433167, -0.395238995552063], "min" : [0.379341006278992, -0.995010018348694]}, {"bufferView" : 0, "byteOffset" : 254040, "componentType" : 5123, "count" : 10920, "type" : "SCALAR", "max" : [2183], "min" : [0]}, {"bufferView" : 10, "byteOffset" : 0, "componentType" : 5126, "count" : 2184, "type" : "VEC3", "max" : [23.018575668335, 13.133659362793, 15.9515237808228], "min" : [-23.018575668335, -0.00195399997755885, -9.26071262359619]}, {"bufferView" : 10, "byteOffset" : 12, "componentType" : 5126, "count" : 2184, "type" : "VEC3", "max" : [0.999789357185364, 0.997254490852356, 0.999221801757813], "min" : [-0.999789357185364, -1.00000429153442, -0.997844934463501]}, {"bufferView" : 10, "byteOffset" : 24, "componentType" : 5126, "count" : 2184, "type" : "VEC2", "max" : [0.990176022052765, -0.0213890001177788], "min" : [0.400043994188309, -0.68377697467804]}, {"bufferView" : 0, "byteOffset" : 275880, "componentType" : 5123, "count" : 2304, "type" : "SCALAR", "max" : [602], "min" : [0]}, {"bufferView" : 13, "byteOffset" : 0, "componentType" : 5126, "count" : 603, "type" : "VEC3", "max" : [4.96279382705688, 163.714889526367, 14.4477205276489], "min" : [-5.1005539894104, 161.653015136719, 12.6351642608643]}, {"bufferView" : 13, "byteOffset" : 12, "componentType" : 5126, "count" : 603, "type" : "VEC3", "max" : [0.519586324691772, 0.931248784065247, 0.969813942909241], "min" : [-0.563415467739105, -0.973819375038147, 0.149511650204659]}, {"bufferView" : 13, "byteOffset" : 24, "componentType" : 5126, "count" : 603, "type" : "VEC2", "max" : [0.770825028419495, -0.799947023391724], "min" : [0.616659998893738, -0.922830998897552]}, {"bufferView" : 0, "byteOffset" : 280488, "componentType" : 5123, "count" : 37332, "type" : "SCALAR", "max" : [10264], "min" : [0]}, {"bufferView" : 16, "byteOffset" : 0, "componentType" : 5126, "count" : 10265, "type" : "VEC3", "max" : [9.85923957824707, 175.936065673828, 16.3288173675537], "min" : [-10.4724731445313, 155.014404296875, -6.7159309387207]}, {"bufferView" : 16, "byteOffset" : 12, "componentType" : 5126, "count" : 10265, "type" : "VEC3", "max" : [0.999840974807739, 1.00000071525574, 0.999123513698578], "min" : [-0.999984264373779, -0.986995100975037, -0.99994158744812]}, {"bufferView" : 16, "byteOffset" : 24, "componentType" : 5126, "count" : 10265, "type" : "VEC2", "max" : [0.998172998428345, -0.000975999981164932], "min" : [0.00125900004059076, -0.999000012874603]}], "asset" : {"generator" : "Aspose.3D 20.2.1", "version" : "2.0"}, "buffers" : [{"uri" : "buffer.bin", "byteLength" : 159713060}], "bufferViews" : [{"buffer" : 0, "byteOffset" : 0, "byteLength" : 355152, "target" : 34963}, {"buffer" : 0, "byteOffset" : 355156, "byteLength" : 120448, "byteStride" : 32, "target" : 34962}, {"buffer" : 0, "byteOffset" : 475608, "byteLength" : 20809061}, {"buffer" : 0, "byteOffset" : 21284672, "byteLength" : 14371751}, {"buffer" : 0, "byteOffset" : 35656424, "byteLength" : 285216, "byteStride" : 32, "target" : 34962}, {"buffer" : 0, "byteOffset" : 35941644, "byteLength" : 20809061}, {"buffer" : 0, "byteOffset" : 56750708, "byteLength" : 14371751}, {"buffer" : 0, "byteOffset" : 71122460, "byteLength" : 341856, "byteStride" : 32, "target" : 34962}, {"buffer" : 0, "byteOffset" : 71464320, "byteLength" : 20809061}, {"buffer" : 0, "byteOffset" : 92273384, "byteLength" : 14371751}, {"buffer" : 0, "byteOffset" : 106645136, "byteLength" : 69888, "byteStride" : 32, "target" : 34962}, {"buffer" : 0, "byteOffset" : 106715028, "byteLength" : 20809061}, {"buffer" : 0, "byteOffset" : 127524092, "byteLength" : 14371751}, {"buffer" : 0, "byteOffset" : 141895844, "byteLength" : 19296, "byteStride" : 32, "target" : 34962}, {"buffer" : 0, "byteOffset" : 141915144, "byteLength" : 4255376}, {"buffer" : 0, "byteOffset" : 146170524, "byteLength" : 4479335}, {"buffer" : 0, "byteOffset" : 150649860, "byteLength" : 328480, "byteStride" : 32, "target" : 34962}, {"buffer" : 0, "byteOffset" : 150978344, "byteLength" : 4255376}, {"buffer" : 0, "byteOffset" : 155233724, "byteLength" : 4479335}], "images" : [{"mimeType" : "image/png", "bufferView" : 2}, {"mimeType" : "image/png", "bufferView" : 3}, {"mimeType" : "image/png", "bufferView" : 5}, {"mimeType" : "image/png", "bufferView" : 6}, {"mimeType" : "image/png", "bufferView" : 8}, {"mimeType" : "image/png", "bufferView" : 9}, {"mimeType" : "image/png", "bufferView" : 11}, {"mimeType" : "image/png", "bufferView" : 12}, {"mimeType" : "image/png", "bufferView" : 14}, {"mimeType" : "image/png", "bufferView" : 15}, {"mimeType" : "image/png", "bufferView" : 17}, {"mimeType" : "image/png", "bufferView" : 18}], "materials" : [{"pbrMetallicRoughness" : {"baseColorFactor" : [1, 1, 1, 1], "baseColorTexture" : {"index" : 1, "texCoord" : 0}, "metallicFactor" : 0, "roughnessFactor" : 0}, "normalTexture" : {"index" : 0, "texCoord" : 0, "scale" : 1}, "emissiveFactor" : [0, 0, 0], "alphaMode" : "OPAQUE", "doubleSided" : false}, {"pbrMetallicRoughness" : {"baseColorFactor" : [1, 1, 1, 1], "baseColorTexture" : {"index" : 3, "texCoord" : 0}, "metallicFactor" : 0, "roughnessFactor" : 0}, "normalTexture" : {"index" : 2, "texCoord" : 0, "scale" : 1}, "emissiveFactor" : [0, 0, 0], "alphaMode" : "OPAQUE", "doubleSided" : false}, {"pbrMetallicRoughness" : {"baseColorFactor" : [1, 1, 1, 1], "baseColorTexture" : {"index" : 5, "texCoord" : 0}, "metallicFactor" : 0, "roughnessFactor" : 0}, "normalTexture" : {"index" : 4, "texCoord" : 0, "scale" : 1}, "emissiveFactor" : [0, 0, 0], "alphaMode" : "OPAQUE", "doubleSided" : false}, {"pbrMetallicRoughness" : {"baseColorFactor" : [1, 1, 1, 1], "baseColorTexture" : {"index" : 7, "texCoord" : 0}, "metallicFactor" : 0, "roughnessFactor" : 0}, "normalTexture" : {"index" : 6, "texCoord" : 0, "scale" : 1}, "emissiveFactor" : [0, 0, 0], "alphaMode" : "OPAQUE", "doubleSided" : false}, {"pbrMetallicRoughness" : {"baseColorFactor" : [1, 1, 1, 1], "baseColorTexture" : {"index" : 9, "texCoord" : 0}, "metallicFactor" : 0, "roughnessFactor" : 0}, "normalTexture" : {"index" : 8, "texCoord" : 0, "scale" : 1}, "emissiveFactor" : [0, 0, 0], "alphaMode" : "OPAQUE", "doubleSided" : false}, {"pbrMetallicRoughness" : {"baseColorFactor" : [1, 1, 1, 1], "baseColorTexture" : {"index" : 11, "texCoord" : 0}, "metallicFactor" : 0, "roughnessFactor" : 0}, "normalTexture" : {"index" : 10, "texCoord" : 0, "scale" : 1}, "emissiveFactor" : [0, 0, 0], "alphaMode" : "OPAQUE", "doubleSided" : false}], "meshes" : [{"primitives" : [{"attributes" : {"POSITION" : 1, "NORMAL" : 2, "TEXCOORD_0" : 3}, "indices" : 0, "material" : 0, "mode" : 4}]}, {"primitives" : [{"attributes" : {"POSITION" : 5, "NORMAL" : 6, "TEXCOORD_0" : 7}, "indices" : 4, "material" : 1, "mode" : 4}]}, {"primitives" : [{"attributes" : {"POSITION" : 9, "NORMAL" : 10, "TEXCOORD_0" : 11}, "indices" : 8, "material" : 2, "mode" : 4}]}, {"primitives" : [{"attributes" : {"POSITION" : 13, "NORMAL" : 14, "TEXCOORD_0" : 15}, "indices" : 12, "material" : 3, "mode" : 4}]}, {"primitives" : [{"attributes" : {"POSITION" : 17, "NORMAL" : 18, "TEXCOORD_0" : 19}, "indices" : 16, "material" : 4, "mode" : 4}]}, {"primitives" : [{"attributes" : {"POSITION" : 21, "NORMAL" : 22, "TEXCOORD_0" : 23}, "indices" : 20, "material" : 5, "mode" : 4}]}], "nodes" : [{"mesh" : 0, "name" : "Ch21_Pants"}, {"mesh" : 1, "name" : "Ch21_Shirt"}, {"mesh" : 2, "name" : "Ch21_Body"}, {"mesh" : 3, "name" : "Ch21_Shoes"}, {"mesh" : 4, "name" : "Ch21_Eyelasshes"}, {"mesh" : 5, "name" : "Ch21_Hair"}], "samplers" : [{"magFilter" : 9729, "minFilter" : 9729, "wrapS" : 10497, "wrapT" : 10497}, {"magFilter" : 9729, "minFilter" : 9729, "wrapS" : 10497, "wrapT" : 10497}, {"magFilter" : 9729, "minFilter" : 9729, "wrapS" : 10497, "wrapT" : 10497}, {"magFilter" : 9729, "minFilter" : 9729, "wrapS" : 10497, "wrapT" : 10497}, {"magFilter" : 9729, "minFilter" : 9729, "wrapS" : 10497, "wrapT" : 10497}, {"magFilter" : 9729, "minFilter" : 9729, "wrapS" : 10497, "wrapT" : 10497}, {"magFilter" : 9729, "minFilter" : 9729, "wrapS" : 10497, "wrapT" : 10497}, {"magFilter" : 9729, "minFilter" : 9729, "wrapS" : 10497, "wrapT" : 10497}, {"magFilter" : 9729, "minFilter" : 9729, "wrapS" : 10497, "wrapT" : 10497}, {"magFilter" : 9729, "minFilter" : 9729, "wrapS" : 10497, "wrapT" : 10497}, {"magFilter" : 9729, "minFilter" : 9729, "wrapS" : 10497, "wrapT" : 10497}, {"magFilter" : 9729, "minFilter" : 9729, "wrapS" : 10497, "wrapT" : 10497}], "scene" : 0, "scenes" : [{"nodes" : [0, 1, 2, 3, 4, 5]}], "textures" : [{"sampler" : 0, "source" : 0}, {"sampler" : 1, "source" : 1}, {"sampler" : 2, "source" : 2}, {"sampler" : 3, "source" : 3}, {"sampler" : 4, "source" : 4}, {"sampler" : 5, "source" : 5}, {"sampler" : 6, "source" : 6}, {"sampler" : 7, "source" : 7}, {"sampler" : 8, "source" : 8}, {"sampler" : 9, "source" : 9}, {"sampler" : 10, "source" : 10}, {"sampler" : 11, "source" : 11}]}